<svg xmlns="http://www.w3.org/2000/svg" width="450.4" height="450.4" viewBox="0 0 450.4 450.4">
  <defs>
    <style>
      .a {
        fill: #fff;
      }
    </style>
  </defs>
  <title>bloomberg_logo-freelogovectors.net</title>
  <g>
    <rect width="450.4" height="450.4"/>
    <path class="a" d="M218.81764,103.66392q.03378,136.33608,0,272.67216,49.42014.06756,98.85154.02252c12.54364-.29276,25.15484-1.0697,37.417-3.896,18.42136-4.06486,36.83146-12.127,49.27376-26.765,12.57742-14.27768,17.01386-34.16284,15.61762-52.77562-1.20482-19.3109-11.44016-38.025-27.59826-48.83462-9.27824-6.60962-20.36934-9.92006-31.50548-11.6541.48418-.24772,1.43-.75442,1.90294-1.00214,14.4128-4.52652,28.01488-13.12916,36.4261-25.90926,9.053-13.44444,11.05732-30.5709,8.445-46.30112a59.20686,59.20686,0,0,0-23.4771-38.53172c-16.7211-12.46482-38.0588-16.75488-58.54074-17.03638Q272.22382,103.63577,218.81764,103.66392Z" transform="translate(-94.8 -14.8)"/>
    <path d="M260.35756,145.112c14.5254.14638,29.0508-.045,43.58746.09008,13.18546.70938,27.542,1.8016,38.3966,10.179,7.96082,6.00158,11.19244,16.34952,10.742,26.0106a29.33229,29.33229,0,0,1-9.70612,21.6755c-9.18816,8.2198-21.92322,10.78708-33.87008,11.38386-16.41708.24772-32.83416.03378-49.25124.12386C260.41386,191.4131,260.21118,168.26254,260.35756,145.112Z" transform="translate(-94.8 -14.8)"/>
    <path d="M260.27874,256.2144c17.44174.03378,34.89474-.09008,52.34774.06756,12.07072.518,24.64814,1.4638,35.55908,7.12758A29.58056,29.58056,0,0,1,363.578,283.869a52.13781,52.13781,0,0,1-.69812,23.54466,32.29365,32.29365,0,0,1-16.40582,19.5361c-11.5978,6.27182-25.06476,7.30774-37.99124,7.87074-16.03424.07882-32.07974-.06756-48.114.07882C260.19992,308.66348,260.39134,282.43894,260.27874,256.2144Z" transform="translate(-94.8 -14.8)"/>
  </g>
</svg>
